HIERARCHY
ROOT Hips
{
	OFFSET	0.00	0.00	0.00
	CHANNELS 6 Xposition Yposition Zposition Zrotation Xrotation Yrotation
	JOINT LeftUpLeg
	{
		OFFSET	 0.126116	-0.014019	-0.065224
		CHANNELS 3 Zrotation Xrotation Yrotation
		JOINT LeftLeg
		{
			OFFSET	 0.000000	 0.000000	 0.569914
			CHANNELS 3 Zrotation Xrotation Yrotation
			JOINT LeftFoot
			{
				OFFSET	 0.000000	 0.000000	 0.544423
				CHANNELS 3 Zrotation Xrotation Yrotation
				JOINT LeftToeBase
				{
					OFFSET	 0.000000	 0.000000	 0.207117
					CHANNELS 3 Zrotation Xrotation Yrotation
					End Site
					{
						OFFSET	 0.000000	 0.000000	 0.207117
					}
				}
			}
		}
	}
	JOINT RightUpLeg
	{
		OFFSET	-0.124023	-0.008373	-0.065224
		CHANNELS 3 Zrotation Xrotation Yrotation
		JOINT RightLeg
		{
			OFFSET	 0.000000	 0.000000	 0.570047
			CHANNELS 3 Zrotation Xrotation Yrotation
			JOINT RightFoot
			{
				OFFSET	 0.000000	 0.000000	 0.544354
				CHANNELS 3 Zrotation Xrotation Yrotation
				JOINT RightToeBase
				{
					OFFSET	 0.000000	 0.000000	 0.207540
					CHANNELS 3 Zrotation Xrotation Yrotation
					End Site
					{
						OFFSET	 0.000000	 0.000000	 0.207540
					}
				}
			}
		}
	}
	JOINT Spine
	{
		OFFSET	 0.000184	-0.007763	 0.117403
		CHANNELS 3 Zrotation Xrotation Yrotation
		JOINT Spine1
		{
			OFFSET	 0.000000	 0.000000	 0.137269
			CHANNELS 3 Zrotation Xrotation Yrotation
			JOINT Spine2
			{
				OFFSET	 0.000000	 0.000000	 0.156879
				CHANNELS 3 Zrotation Xrotation Yrotation
				JOINT LeftShoulder
				{
					OFFSET	 0.080501	-0.002496	 0.160144
					CHANNELS 3 Zrotation Xrotation Yrotation
					JOINT LeftArm
					{
						OFFSET	 0.000000	 0.000000	 0.164363
						CHANNELS 3 Zrotation Xrotation Yrotation
						JOINT LeftForeArm
						{
							OFFSET	 0.000000	 0.000000	 0.364576
							CHANNELS 3 Zrotation Xrotation Yrotation
							JOINT LeftHand
							{
								OFFSET	 0.000000	 0.000000	 0.360812
								CHANNELS 3 Zrotation Xrotation Yrotation
								JOINT LeftHandIndex1
								{
									OFFSET	 0.000000	 0.000000	 0.086006
									CHANNELS 3 Zrotation Xrotation Yrotation
									JOINT LeftHandIndex2
									{
										OFFSET	 0.000000	 0.000000	 0.047236
										CHANNELS 3 Zrotation Xrotation Yrotation
										JOINT LeftHandIndex3
										{
											OFFSET	-0.004284	-0.000551	 0.038166
											CHANNELS 3 Zrotation Xrotation Yrotation
											End Site
											{
												OFFSET	-0.004284	-0.000551	 0.038166
											}
										}
									}
								}
							}
						}
					}
				}
				JOINT Neck
				{
					OFFSET	 0.000000	 0.000000	 0.176489
					CHANNELS 3 Zrotation Xrotation Yrotation
					JOINT Head
					{
						OFFSET	 0.000000	-0.001747	 0.077940
						CHANNELS 3 Zrotation Xrotation Yrotation
						End Site
						{
							OFFSET	 0.000000	-0.001747	 0.077940
						}
					}
				}
				JOINT RightShoulder
				{
					OFFSET	-0.080363	 0.000306	 0.159706
					CHANNELS 3 Zrotation Xrotation Yrotation
					JOINT RightArm
					{
						OFFSET	 0.000000	 0.000000	 0.164196
						CHANNELS 3 Zrotation Xrotation Yrotation
						JOINT RightForeArm
						{
							OFFSET	 0.000000	 0.000000	 0.365611
							CHANNELS 3 Zrotation Xrotation Yrotation
							JOINT RightHand
							{
								OFFSET	 0.000000	 0.000000	 0.360648
								CHANNELS 3 Zrotation Xrotation Yrotation
								JOINT RightHandIndex1
								{
									OFFSET	 0.000000	 0.000000	 0.069977
									CHANNELS 3 Zrotation Xrotation Yrotation
									JOINT RightHandIndex2
									{
										OFFSET	 0.000000	 0.000000	 0.052305
										CHANNELS 3 Zrotation Xrotation Yrotation
										JOINT RightHandIndex3
										{
											OFFSET	 0.009002	-0.000782	 0.042196
											CHANNELS 3 Zrotation Xrotation Yrotation
											End Site
											{
												OFFSET	 0.009002	-0.000782	 0.042196
											}
										}
									}
								}
							}
						}
					}
				}
			}
		}
	}
}
MOTION
Frames:    12
Frame Time: 0.03333334
-0.056804	-2.230379	 1.206493	 4.113434	-1.645143	-3.007264	 8.542986	-10.690800	-173.084200	 0.373720	-37.668880	 0.011761	 50.626280	 80.517760	-54.259430	-2.371216	 31.309050	-0.063007	-11.387930	-29.688210	-175.691000	 10.089530	-52.190580	 8.574629	 7.834245	 69.839840	-2.214654	 2.357934	 33.151780	 0.106755	-3.636059	 8.916446	 1.928667	-1.161068	 2.247805	-0.359677	 0.399342	-2.117831	 0.238523	-93.782100	 58.876350	 175.732000	 16.075160	 36.182550	-37.194740	-17.076150	 2.493356	-8.457418	-6.149595	-6.976037	-6.878301	-4.869437	 19.240800	-2.786448	-3.890226	 21.361310	 2.211596	-4.808241	 5.545688	 0.146957	-0.122126	-5.019958	 0.160575	-1.841174	 2.308568	 2.780294	 89.828030	 61.587140	-179.890700	-19.632380	 50.157910	 16.133660	 15.073270	 2.461256	 8.483266	 1.719270	 6.386250	 0.021073	 6.303589	 25.901120	-0.574180	 1.741409	 45.839330	-6.864260	 0.363211	 24.986890	 3.651738
-0.057944	-2.256509	 1.206294	 4.701268	-1.321327	-2.946100	 7.779616	-9.513532	-173.439400	 0.755504	-37.104430	 0.242998	 52.981080	 81.129650	-56.873420	-2.370176	 31.485860	-0.067003	-12.838140	-31.394000	-176.253500	 9.971091	-48.933690	 8.130026	 7.641638	 71.408390	-2.402440	 2.358535	 33.063500	 0.104701	-3.730244	 8.750731	 1.881594	-1.380548	 2.201973	-0.539954	 0.742463	-2.181945	 0.471500	-93.891730	 58.963700	 175.487900	 15.429650	 34.670220	-38.233440	-17.677970	 2.496095	-8.452400	-5.664330	-7.036971	-7.835506	-4.869164	 19.246250	-2.786507	-3.885845	 21.417500	 2.207143	-4.808260	 5.545473	 0.146969	-0.089372	-5.059056	 0.177266	-1.396484	 2.243345	 2.679227	 89.793620	 61.630870	-179.972600	-19.488940	 50.811990	 14.890360	 14.884350	 2.457141	 8.477742	 1.510906	 6.727450	-0.123920	 6.296496	 25.151310	-0.549959	 1.847165	 45.008630	-6.958918	 0.488137	 24.443250	 3.587645
-0.058979	-2.279399	 1.205390	 5.197206	-0.987230	-2.911197	 7.065972	-8.586607	-173.711500	 1.038077	-36.690770	 0.409510	 55.166390	 81.696980	-59.317220	-2.369292	 31.632780	-0.070334	-14.162950	-32.771630	-176.817700	 9.930383	-45.689270	 7.691578	 7.255067	 72.545600	-2.474175	 2.358922	 33.006600	 0.103383	-3.745361	 8.560911	 1.825900	-1.554886	 2.178531	-0.657195	 1.021678	-2.247705	 0.651032	-93.993430	 59.016890	 175.263900	 14.791640	 33.321120	-39.117100	-18.062430	 2.496009	-8.447450	-5.225585	-7.168958	-8.537766	-4.867865	 19.280590	-2.788934	-3.881152	 21.477550	 2.202374	-4.807389	 5.555745	 0.146372	-0.062331	-5.087923	 0.197850	-1.034402	 2.186630	 2.605390	 89.759190	 61.673740	 179.945300	-19.321740	 51.349210	 13.812320	 14.653450	 2.451507	 8.471748	 1.276041	 6.990798	-0.260832	 6.288784	 24.439580	-0.539174	 1.939732	 44.258480	-7.041393	 0.617220	 23.875790	 3.522437
-0.060206	-2.305222	 1.203680	 5.696659	-0.498488	-2.903673	 6.408899	-7.667809	-173.989900	 1.223705	-36.273730	 0.515339	 58.064370	 82.311040	-62.317430	-2.368432	 31.774800	-0.073547	-15.697000	-34.171740	-177.582800	 9.993345	-41.539730	 7.176693	 6.647040	 73.665600	-2.455044	 2.359014	 32.993320	 0.103068	-3.633023	 8.241708	 1.732984	-1.740772	 2.153417	-0.718784	 1.304589	-2.323148	 0.810775	-94.119500	 59.019120	 174.994700	 13.953680	 31.814500	-40.025370	-18.221920	 2.491179	-8.435463	-4.622179	-7.478952	-8.982027	-4.863860	 19.389270	-2.797390	-3.873967	 21.569500	 2.195070	-4.804313	 5.592100	 0.144240	-0.036645	-5.106658	 0.234614	-0.674870	 2.131559	 2.557752	 89.711140	 61.731840	 179.830400	-19.097790	 51.917240	 12.618800	 14.248310	 2.442244	 8.463406	 0.893918	 7.231890	-0.441806	 6.275955	 23.527090	-0.551988	 2.044544	 43.381810	-7.134356	 0.806305	 23.034230	 3.428817
-0.061413	-2.331368	 1.201335	 6.081792	-0.027405	-2.978133	 5.879558	-6.659395	-174.197500	 1.379074	-35.792260	 0.600302	 62.146760	 82.968430	-66.484860	-2.367347	 31.952320	-0.077584	-16.869200	-35.229320	-178.289400	 9.970057	-36.973510	 6.500737	 6.731148	 74.079570	-3.242922	 2.359653	 32.899490	 0.100883	-3.405421	 7.898873	 1.712681	-1.903130	 2.202526	-0.766005	 1.566422	-2.405583	 0.947872	-94.236320	 59.002020	 174.747900	 13.094840	 30.359870	-40.922690	-18.492310	 2.485561	-8.422236	-4.217071	-7.927444	-9.119357	-4.857746	 19.540630	-2.806389	-3.865133	 21.681950	 2.186098	-4.799596	 5.647592	 0.140991	-0.017724	-5.133875	 0.270414	-0.359289	 2.078093	 2.535776	 89.652120	 61.803900	 179.688400	-18.803050	 52.442620	 11.454300	 13.711570	 2.430014	 8.454319	 0.449239	 7.442961	-0.766831	 6.260945	 22.554520	-0.574874	 2.142594	 42.534530	-7.220873	 1.013260	 22.099010	 3.329009
-0.062456	-2.355172	 1.198804	 6.290364	 0.375471	-3.137834	 5.556976	-5.619228	-174.300700	 1.480659	-35.223330	 0.650612	 67.286710	 83.564700	-71.684280	-2.366088	 32.154940	-0.082207	-17.432280	-35.908620	-178.760800	 9.957919	-32.649380	 5.829330	 6.664236	 73.277410	-3.813876	 2.360867	 32.717500	 0.096678	-3.078994	 7.557402	 1.785505	-2.031855	 2.325062	-0.801224	 1.787280	-2.482176	 1.051031	-94.330300	 58.963050	 174.553600	 12.324440	 29.135280	-41.701890	-18.886820	 2.480130	-8.407577	-4.067864	-8.487399	-8.865174	-4.849679	 19.728420	-2.815159	-3.855221	 21.807920	 2.176029	-4.793391	 5.720665	 0.136701	-0.008922	-5.168667	 0.301451	-0.117891	 2.033808	 2.547074	 89.585750	 61.885670	 179.527800	-18.460880	 52.876300	 10.436170	 13.070720	 2.415707	 8.441219	-0.022105	 7.611085	-1.236466	 6.244593	 21.607360	-0.607553	 2.224199	 41.808470	-7.292536	 1.221199	 21.144690	 3.231591
-0.063903	-2.383404	 1.195489	 6.454173	 0.731726	-3.314261	 5.217651	-4.183263	-174.459400	 1.567409	-34.410850	 0.686523	 72.456400	 84.151320	-76.886610	-2.363469	 32.561990	-0.091548	-17.560580	-36.350930	-179.145500	 9.768027	-27.745570	 4.946116	 8.705709	 73.902400	-6.492640	 2.359170	 32.970530	 0.102540	-2.678486	 7.195348	 1.881539	-2.173126	 2.556747	-0.848860	 2.031070	-2.584313	 1.164402	-94.414440	 58.918830	 174.381200	 11.425890	 27.927150	-42.501140	-19.279730	 2.471219	-8.387054	-3.981748	-9.019501	-8.563827	-4.839262	 19.951430	-2.821239	-3.841865	 21.976930	 2.162453	-4.784025	 5.830663	 0.130233	 0.004098	-5.215206	 0.327036	 0.142955	 1.972518	 2.549119	 89.516650	 61.963360	 179.359800	-17.952880	 53.312020	 9.208567	 12.265420	 2.396461	 8.421493	-0.533137	 7.678589	-1.895450	 6.223567	 20.457560	-0.650954	 2.349650	 40.653760	-7.402066	 1.470772	 19.980090	 3.118562
-0.065673	-2.412040	 1.191306	 6.525184	 0.958875	-3.480396	 4.926242	-2.527361	-174.657300	 1.621174	-33.542240	 0.700968	 76.841380	 84.680910	-81.267360	-2.359407	 33.170250	-0.105616	-16.975910	-37.196570	-179.259200	 9.504323	-24.158850	 4.237762	 14.837400	 76.662790	-13.088470	 2.353604	 33.765730	 0.121136	-2.247678	 6.873722	 1.993539	-2.298100	 2.927867	-0.894099	 2.264174	-2.719186	 1.267021	-94.469630	 58.875580	 174.270900	 10.512650	 26.961310	-43.242440	-19.603700	 2.459471	-8.363556	-3.989594	-9.418192	-8.258346	-4.827610	 20.180640	-2.822479	-3.826303	 22.172840	 2.146654	-4.772142	 5.970189	 0.121992	 0.020387	-5.269051	 0.340526	 0.384655	 1.900133	 2.538859	 89.456500	 62.020990	 179.213100	-17.315160	 53.654480	 7.920212	 11.382650	 2.374245	 8.399297	-1.000526	 7.603510	-2.690096	 6.199952	 19.247320	-0.700768	 2.507286	 39.133260	-7.538509	 1.730250	 18.747470	 3.005688
-0.067547	-2.437187	 1.186737	 6.628346	 1.059446	-3.602836	 4.617382	-0.982064	-174.876000	 1.700949	-32.833140	 0.731102	 79.241410	 85.087060	-83.684010	-2.353059	 34.065160	-0.126596	-16.596080	-38.590450	-179.393900	 9.607434	-22.494920	 4.003113	 19.300010	 77.673470	-18.003720	 2.347313	 34.608230	 0.141121	-1.931108	 6.765183	 2.077604	-2.393697	 3.126961	-0.912884	 2.446158	-2.855173	 1.338393	-94.505230	 58.869790	 174.196200	 9.727589	 26.341560	-43.815750	-19.699660	 2.446279	-8.342186	-3.976143	-9.989708	-8.247471	-4.828500	 20.327830	-2.871027	-3.812488	 22.346010	 2.132624	-4.759130	 6.122528	 0.112964	 0.046535	-5.316518	 0.348185	 0.588560	 1.855979	 2.471458	 89.414010	 62.025520	 179.110100	-16.694130	 53.860050	 6.688635	 10.670830	 2.353521	 8.377029	-1.314521	 7.333754	-3.325195	 6.183513	 18.173540	-0.714121	 2.644149	 37.746800	-7.655822	 1.955578	 17.659370	 2.911602
-0.069983	-2.466542	 1.180896	 6.782576	 1.089019	-3.722788	 4.214037	 0.945898	-175.166800	 1.816617	-31.911810	 0.773956	 79.356990	 85.515890	-83.828540	-2.342609	 35.411200	-0.158808	-16.373210	-40.567630	-179.624400	 10.021320	-21.762320	 4.037620	 22.296990	 77.778450	-21.629930	 2.338478	 35.704980	 0.167629	-1.623400	 6.790235	 2.163122	-2.495111	 3.210620	-0.926901	 2.627950	-3.012837	 1.406720	-94.535010	 58.891270	 174.129400	 8.873156	 25.848310	-44.361440	-19.644500	 2.426688	-8.311860	-3.944397	-10.858210	-8.459004	-4.839065	 20.450320	-2.968403	-3.796401	 22.546590	 2.116281	-4.741869	 6.324117	 0.100958	 0.086995	-5.371349	 0.353454	 0.808695	 1.822128	 2.342934	 89.373740	 61.990380	 179.014100	-15.923910	 54.009410	 5.197032	 9.897741	 2.327903	 8.347178	-1.594407	 6.837531	-4.003748	 6.169037	 16.926350	-0.703314	 2.798545	 36.104110	-7.786745	 2.212283	 16.400260	 2.809021
-0.073048	-2.497328	 1.174812	 6.922207	 1.084908	-3.668161	 3.751334	 3.015853	-175.655000	 2.023341	-30.804060	 0.855710	 68.939680	 85.800830	-73.449650	-2.323138	 37.605190	-0.213193	-16.101400	-42.382340	-179.994600	 10.106320	-21.504960	 4.024435	 19.276460	 76.252330	-18.696930	 2.336205	 35.973380	 0.174199	-1.342993	 6.783553	 2.132244	-2.576475	 3.346058	-0.999082	 2.775253	-3.144569	 1.474584	-94.537890	 59.000340	 174.105300	 8.069233	 25.574750	-44.826650	-19.589960	 2.404961	-8.278687	-4.018647	-11.886220	-8.799534	-4.854465	 20.531070	-3.081829	-3.781830	 22.727410	 2.101484	-4.720356	 6.574632	 0.085944	 0.128011	-5.422335	 0.329930	 1.023204	 1.813960	 2.239545	 89.357630	 61.872880	 178.979700	-15.243200	 54.018670	 3.805263	 9.171424	 2.299831	 8.313836	-1.918393	 6.194891	-4.592378	 6.170060	 15.666650	-0.613381	 2.910088	 34.862720	-7.880336	 2.462220	 15.155010	 2.713971
-0.076038	-2.525643	 1.169826	 7.037374	 1.063231	-3.525072	 3.323405	 5.025394	-176.182500	 2.245150	-29.448880	 0.930665	 52.032040	 85.643880	-56.567550	-2.298367	 39.973840	-0.274929	-15.851570	-43.416370	 179.630500	 9.979834	-21.206620	 3.924163	 15.133840	 74.070300	-14.359240	 2.337980	 35.765270	 0.169093	-1.120759	 6.762074	 2.041006	-2.644928	 3.425828	-1.107327	 2.873216	-3.216468	 1.535260	-94.525990	 59.142360	 174.107000	 7.449275	 25.485540	-45.085590	-19.539360	 2.383240	-8.245259	-4.143750	-12.888900	-9.165606	-4.870495	 20.579330	-3.189453	-3.769907	 22.874750	 2.089381	-4.699244	 6.819535	 0.071165	 0.164076	-5.464810	 0.294034	 1.196408	 1.821467	 2.161783	 89.356510	 61.726240	 178.982500	-14.703190	 53.956650	 2.677134	 8.555659	 2.272962	 8.281322	-2.229892	 5.541259	-5.059849	 6.181064	 14.560040	-0.493192	 2.985774	 33.993160	-7.943324	 2.676065	 14.074960	 2.636524
